<svg xmlns="http://www.w3.org/2000/svg" width="19.001" height="16.999" viewBox="0 0 19.001 16.999">
  <path id="联合_1" data-name="联合 1" d="M-13122-9011.539a5.6,5.6,0,0,1,2.479-4.4,3.55,3.55,0,0,1-1.212-2.788c0-1.809,1.133-3.271,2.532-3.271s2.536,1.462,2.536,3.271a4.114,4.114,0,0,1-.137,1.061,13.365,13.365,0,0,1,3.3-.405,13.371,13.371,0,0,1,3.3.405,4.114,4.114,0,0,1-.138-1.061c0-1.809,1.137-3.271,2.536-3.271s2.532,1.462,2.532,3.271a3.546,3.546,0,0,1-1.212,2.788,5.6,5.6,0,0,1,2.479,4.4c0,3.609-4.254,6.537-9.5,6.537S-13122-9007.93-13122-9011.539Z" transform="translate(13122 9022.001)" fill="#6374FF"/>
</svg>
